999
DXF file: intake_mount_smilebend_nologo_V1.dxf
999
Pro/ENGINEER 2019224 by Parametric Technology Corporation
  0
SECTION
  2
HEADER
  9
$ACADVER
  1
AC1012
  9
$DWGCODEPAGE
  3
ANSI_1252
  9
$EXTMAX
 10
22.0
 20
17.0
 30
0.0
  9
$EXTMIN
 10
0.0
 20
0.0
 30
0.0
  9
$LIMMIN
 10
0.0
 20
0.0
  9
$LIMMAX
 10
22.0
 20
17.0
  9
$VIEWCTR
 10
11.0
 20
8.5
  9
$VIEWSIZE
 40
17.0
  9
$CLAYER
  8
0
  9
$LTSCALE
 40
1.21
  9
$CELTYPE
  6
BYLAYER
  9
$DIMSCALE
 40
1.0
  9
$DIMASZ
 40
0.1875
  9
$DIMEXO
 40
0.0625
  9
$DIMDLI
 40
0.836
  9
$DIMEXE
 40
0.125
  9
$DIMCEN
 40
0.198
  9
$DIMLFAC
 40
1.0
  9
$DIMBLK
  1
_FILLED
  9
$DIMALT
 70
0
  9
$DIMALTF
 40
25.4
  9
$DIMTXT
 40
0.15625
  9
$DIMTOL
 70
0
  9
$DIMLIM
 70
0
  9
$DIMTFAC
 40
1.0
  9
$DIMGAP
 40
0.09
  9
$AUNITS
 70
0
  9
$PDMODE
 70
3
  9
$PDSIZE
 40
0.3125
  9
$HANDSEED
  5
284
  9
$TILEMODE
 70
1
  0
ENDSEC
  0
SECTION
  2
CLASSES
  0
ENDSEC
  0
SECTION
  2
TABLES
  0
TABLE
  2
VPORT
  5
8
100
AcDbSymbolTable
 70
2
  0
VPORT
  5
1F4
100
AcDbSymbolTableRecord
100
AcDbViewportTableRecord
  2
*ACTIVE
 70
0
 10
0.0
 20
0.0
 11
1.0
 21
1.0
 12
11.0
 22
8.5
 13
0.0
 23
0.0
 14
1.0
 24
1.0
 15
0.0
 25
0.0
 16
0.0
 26
0.0
 36
1.0
 17
0.0
 27
0.0
 37
0.0
 40
17.0
 41
1.2941176471
 42
50.0
 43
0.0
 44
0.0
 50
0.0
 51
0.0
 71
0
 72
100
 73
1
 74
1
 75
0
 76
0
 77
0
 78
0
  0
ENDTAB
  0
TABLE
  2
LTYPE
  5
5
100
AcDbSymbolTable
 70
6
  0
LTYPE
  5
14
100
AcDbSymbolTableRecord
100
AcDbLinetypeTableRecord
  2
BYBLOCK
 70
0
  3

 72
65
 73
0
 40
0.0
  0
LTYPE
  5
15
100
AcDbSymbolTableRecord
100
AcDbLinetypeTableRecord
  2
BYLAYER
 70
0
  3

 72
65
 73
0
 40
0.0
  0
LTYPE
  5
16
100
AcDbSymbolTableRecord
100
AcDbLinetypeTableRecord
  2
CONTINUOUS
 70
64
  3
Solid line
 72
65
 73
0
 40
0.0
  0
LTYPE
  5
1F5
100
AcDbSymbolTableRecord
100
AcDbLinetypeTableRecord
  2
CENTER
 70
64
  3
____ _ ____ _ ____ _ ____ _ ____ _ ____ _ ____
 72
65
 73
4
 40
0.6
 49
0.375
 74
0
 49
-0.075
 74
0
 49
0.075
 74
0
 49
-0.075
 74
0
  0
LTYPE
  5
1F6
100
AcDbSymbolTableRecord
100
AcDbLinetypeTableRecord
  2
HIDDEN
 70
64
  3
- - - - - - - - - - - - - - - - - - - -
 72
65
 73
2
 40
0.2
 49
0.1
 74
0
 49
-0.1
 74
0
  0
LTYPE
  5
1F7
100
AcDbSymbolTableRecord
100
AcDbLinetypeTableRecord
  2
PHANTOM
 70
64
  3
_____ _ _ _____ _ _ _____ _ _ _____
 72
65
 73
6
 40
0.8
 49
0.45
 74
0
 49
-0.05
 74
0
 49
0.1
 74
0
 49
-0.05
 74
0
 49
0.1
 74
0
 49
-0.05
 74
0
  0
LTYPE
  5
1F8
100
AcDbSymbolTableRecord
100
AcDbLinetypeTableRecord
  2
DOT
 70
64
  3
. . . . . . . . . . . . . . . . . . . .
 72
65
 73
2
 40
0.2
 49
0.1
 74
0
 49
-0.1
 74
0
  0
LTYPE
  5
1F9
100
AcDbSymbolTableRecord
100
AcDbLinetypeTableRecord
  2
DASHED
 70
64
  3
- - - - - - - - - - - - - - - - - - - -
 72
65
 73
2
 40
0.2
 49
0.1
 74
0
 49
-0.1
 74
0
  0
ENDTAB
  0
TABLE
  2
LAYER
  5
2
100
AcDbSymbolTable
 70
36
  0
LAYER
  5
10
100
AcDbSymbolTableRecord
100
AcDbLayerTableRecord
  2
0
 70
0
 62
7
  6
CONTINUOUS
  0
LAYER
  5
1FA
100
AcDbSymbolTableRecord
100
AcDbLayerTableRecord
  2
DEFAULT_1
 70
0
 62
7
  6
CENTER
  0
LAYER
  5
1FB
100
AcDbSymbolTableRecord
100
AcDbLayerTableRecord
  2
DEFAULT_2
 70
0
 62
8
  6
HIDDEN
  0
LAYER
  5
1FC
100
AcDbSymbolTableRecord
100
AcDbLayerTableRecord
  2
DEFAULT_3
 70
0
 62
7
  6
PHANTOM
  0
LAYER
  5
1FD
100
AcDbSymbolTableRecord
100
AcDbLayerTableRecord
  2
01___PRT_ALL_DTM_PLN
 70
0
 62
7
  6
CONTINUOUS
  0
LAYER
  5
1FE
100
AcDbSymbolTableRecord
100
AcDbLayerTableRecord
  2
01___PRT_DEF_DTM_PLN
 70
0
 62
7
  6
CONTINUOUS
  0
LAYER
  5
1FF
100
AcDbSymbolTableRecord
100
AcDbLayerTableRecord
  2
02___PRT_ALL_AXES
 70
0
 62
7
  6
CONTINUOUS
  0
LAYER
  5
200
100
AcDbSymbolTableRecord
100
AcDbLayerTableRecord
  2
03___PRT_ALL_CURVES
 70
0
 62
7
  6
CONTINUOUS
  0
LAYER
  5
201
100
AcDbSymbolTableRecord
100
AcDbLayerTableRecord
  2
04___PRT_ALL_DTM_PNT
 70
0
 62
7
  6
CONTINUOUS
  0
LAYER
  5
202
100
AcDbSymbolTableRecord
100
AcDbLayerTableRecord
  2
05___PRT_ALL_DTM_CSYS
 70
0
 62
7
  6
CONTINUOUS
  0
LAYER
  5
203
100
AcDbSymbolTableRecord
100
AcDbLayerTableRecord
  2
05___PRT_DEF_DTM_CSYS
 70
0
 62
7
  6
CONTINUOUS
  0
LAYER
  5
204
100
AcDbSymbolTableRecord
100
AcDbLayerTableRecord
  2
06___PRT_ALL_SURFS
 70
0
 62
7
  6
CONTINUOUS
  0
LAYER
  5
205
100
AcDbSymbolTableRecord
100
AcDbLayerTableRecord
  2
3_ALL_SYMBOLS
 70
0
 62
7
  6
CONTINUOUS
  0
ENDTAB
  0
TABLE
  2
STYLE
  5
3
100
AcDbSymbolTable
 70
1
  0
STYLE
  5
11
100
AcDbSymbolTableRecord
100
AcDbTextStyleTableRecord
  2
STANDARD
 70
0
 40
0.0
 41
1.0
 50
0.0
 71
0
 42
0.2
  3
ar_wgl__.ttf
  4

  0
STYLE
  5
206
100
AcDbSymbolTableRecord
100
AcDbTextStyleTableRecord
  2
TEXTSTYLE_1
 70
0
 40
0.0
 41
0.8
 50
0.0
 71
0
 42
0.2
  3
gdt
  4

  0
ENDTAB
  0
TABLE
  2
VIEW
  5
6
100
AcDbSymbolTable
 70
0
  0
ENDTAB
  0
TABLE
  2
UCS
  5
7
100
AcDbSymbolTable
 70
0
  0
ENDTAB
  0
TABLE
  2
APPID
  5
9
100
AcDbSymbolTable
 70
1
  0
APPID
  5
207
100
AcDbSymbolTableRecord
100
AcDbRegAppTableRecord
  2
ACAD
 70
0
  0
ENDTAB
  0
TABLE
  2
BLOCK_RECORD
  5
1
100
AcDbSymbolTable
 70
0
  0
BLOCK_RECORD
  5
1F
100
AcDbSymbolTableRecord
100
AcDbBlockTableRecord
  2
*MODEL_SPACE
  0
BLOCK_RECORD
  5
1B
100
AcDbSymbolTableRecord
100
AcDbBlockTableRecord
  2
*PAPER_SPACE
  0
BLOCK_RECORD
  5
208
100
AcDbSymbolTableRecord
100
AcDbBlockTableRecord
  2
_FILLED
  0
ENDTAB
  0
TABLE
  2
DIMSTYLE
  5
A
100
AcDbSymbolTable
 70
1
  0
DIMSTYLE
105
209
100
AcDbSymbolTableRecord
100
AcDbDimStyleTableRecord
  2
STANDARD
 70
0
  3

  4

  5
_FILLED
  6
_FILLED
  7
_FILLED
 40
1.0
 41
0.1875
 42
0.0625
 43
0.38
 44
0.125
 45
0.0
 46
0.0
 47
0.01
 48
0.01
140
0.15625
141
0.09
142
0.0
143
25.4
144
1.0
145
0.0
146
1.0
147
0.09
 71
0.0
 72
0.0
 73
1
 74
1
 75
0
 76
0
 77
0
 78
4
 79
1
170
0
171
1
172
0
173
0
174
0
175
0
176
0
177
0
178
0
270
2
271
2
272
2
273
2
274
2
275
0
280
0
281
0
282
0
283
1
284
4
285
0
286
0
287
3
288
0
340
11
  0
ENDTAB
  0
ENDSEC
  0
SECTION
  2
BLOCKS
  0
BLOCK
  5
20
100
AcDbEntity
  8
0
100
AcDbBlockBegin
  2
*MODEL_SPACE
 70
0
 10
0.0
 20
0.0
 30
0.0
  3
*MODEL_SPACE
  1

  0
ENDBLK
  5
21
100
AcDbEntity
  8
0
100
AcDbBlockEnd
  0
BLOCK
  5
1C
100
AcDbEntity
  8
0
100
AcDbBlockBegin
  2
*PAPER_SPACE
 70
0
 10
0.0
 20
0.0
 30
0.0
  3
*PAPER_SPACE
  1

  0
ENDBLK
  5
1D
100
AcDbEntity
  8
0
100
AcDbBlockEnd
  0
BLOCK
  5
20A
100
AcDbEntity
  8
0
100
AcDbBlockBegin
  2
_FILLED
 70
64
 10
0.0
 20
0.0
  3
_FILLED
  1

  0
SOLID
  5
20B
100
AcDbEntity
  8
0
  6
BYBLOCK
 62
0
100
AcDbTrace
 10
0.0
 20
0.0
 11
-1.0
 21
0.1666666667
 12
-1.0
 22
-0.1666666667
 13
-1.0
 23
-0.1666666667
  0
ENDBLK
  5
20C
100
AcDbEntity
  8
0
  6
BYBLOCK
 62
0
100
AcDbBlockEnd
  0
ENDSEC
  0
SECTION
  2
ENTITIES
  0
MTEXT
  5
20D
100
AcDbEntity
  8
0
100
AcDbMText
 62
2
  6
CONTINUOUS
  7
STANDARD
 71
3
 72
1
 10
9.3330141944
 20
9.9653827188
 30
0.0
 11
1.0
 21
0.0
 31
0.0
  1
SCALE 1.000
 40
0.15625
 41
1.3208643123
  0
LINE
  5
20E
100
AcDbEntity
  8
0
100
AcDbLine
 62
7
  6
CONTINUOUS
 10
0.0
 20
0.0
 11
0.0
 21
17.0
  0
LINE
  5
20F
100
AcDbEntity
  8
0
100
AcDbLine
 62
7
  6
CONTINUOUS
 10
0.0
 20
0.0
 11
22.0
 21
0.0
  0
LINE
  5
210
100
AcDbEntity
  8
0
100
AcDbLine
 62
7
  6
CONTINUOUS
 10
0.0
 20
17.0
 11
22.0
 21
17.0
  0
LINE
  5
211
100
AcDbEntity
  8
0
100
AcDbLine
 62
7
  6
CONTINUOUS
 10
22.0
 20
0.0
 11
22.0
 21
17.0
  0
LINE
  5
212
100
AcDbEntity
  8
06___PRT_ALL_SURFS
100
AcDbLine
 62
7
  6
CONTINUOUS
 10
0.9587066098
 20
15.103515754
 11
0.8307538539
 21
14.8818950798
  0
LINE
  5
213
100
AcDbEntity
  8
06___PRT_ALL_SURFS
100
AcDbLine
 62
7
  6
CONTINUOUS
 10
1.0651603362
 20
14.7465604341
 11
1.1931130921
 21
14.9681811083
  0
LINE
  5
214
100
AcDbEntity
  8
06___PRT_ALL_SURFS
100
AcDbLine
 62
7
  6
CONTINUOUS
 10
1.4999724871
 20
14.791015754
 11
1.3720197312
 21
14.5693950798
  0
LINE
  5
215
100
AcDbEntity
  8
06___PRT_ALL_SURFS
100
AcDbLine
 62
7
  6
CONTINUOUS
 10
1.641066344
 20
14.4940588999
 11
1.7343789695
 21
14.6556811083
  0
LINE
  5
216
100
AcDbEntity
  8
06___PRT_ALL_SURFS
100
AcDbLine
 62
7
  6
CONTINUOUS
 10
4.4425789691
 20
12.2794919708
 11
4.4425789691
 21
11.5708305535
  0
LINE
  5
217
100
AcDbEntity
  8
06___PRT_ALL_SURFS
100
AcDbLine
 62
7
  6
CONTINUOUS
 10
4.9653764569
 20
12.181066774
 11
4.9653764569
 21
12.5747675614
  0
LINE
  5
218
100
AcDbEntity
  8
06___PRT_ALL_SURFS
100
AcDbLine
 62
7
  6
CONTINUOUS
 10
4.4425789691
 20
11.5708305535
 11
5.944000818
 21
10.3109880338
  0
LINE
  5
219
100
AcDbEntity
  8
06___PRT_ALL_SURFS
100
AcDbLine
 62
7
  6
CONTINUOUS
 10
5.3295496853
 20
12.8869680454
 11
5.3295496853
 21
11.7058656832
  0
LINE
  5
21A
100
AcDbEntity
  8
06___PRT_ALL_SURFS
100
AcDbLine
 62
7
  6
CONTINUOUS
 10
5.5854551971
 20
11.7058656832
 11
5.5854551971
 21
12.8869680454
  0
LINE
  5
21B
100
AcDbEntity
  8
06___PRT_ALL_SURFS
100
AcDbLine
 62
7
  6
CONTINUOUS
 10
9.4479378259
 20
10.1535077188
 11
9.9203787708
 21
10.1535077188
  0
LINE
  5
21C
100
AcDbEntity
  8
06___PRT_ALL_SURFS
100
AcDbLine
 62
7
  6
CONTINUOUS
 10
5.944000818
 20
10.3109880338
 11
6.9085677471
 21
10.3109880338
  0
LINE
  5
21D
100
AcDbEntity
  8
06___PRT_ALL_SURFS
100
AcDbLine
 62
7
  6
CONTINUOUS
 10
0.9946727109
 20
14.2701415771
 11
4.4425789691
 21
12.2794919708
  0
LINE
  5
21E
100
AcDbEntity
  8
06___PRT_ALL_SURFS
100
AcDbLine
 62
7
  6
CONTINUOUS
 10
6.5148669597
 20
10.8818541755
 11
6.5148669597
 21
11.9054762228
  0
LINE
  5
21F
100
AcDbEntity
  8
06___PRT_ALL_SURFS
100
AcDbLine
 62
7
  6
CONTINUOUS
 10
6.8691976684
 20
11.9054762228
 11
6.8691976684
 21
10.8818541755
  0
LINE
  5
220
100
AcDbEntity
  8
06___PRT_ALL_SURFS
100
AcDbLine
 62
7
  6
CONTINUOUS
 10
8.6334843464
 20
16.4003557658
 11
8.4760040314
 21
16.2428754508
  0
LINE
  5
221
100
AcDbEntity
  8
06___PRT_ALL_SURFS
100
AcDbLine
 62
7
  6
CONTINUOUS
 10
4.9653764569
 20
12.5747675614
 11
1.641066344
 21
14.4940588999
  0
LINE
  5
222
100
AcDbEntity
  8
06___PRT_ALL_SURFS
100
AcDbLine
 62
7
  6
CONTINUOUS
 10
6.6658043187
 20
12.3298455453
 11
6.5964728538
 21
12.3991770102
  0
LINE
  5
223
100
AcDbEntity
  8
06___PRT_ALL_SURFS
100
AcDbLine
 62
7
  6
CONTINUOUS
 10
6.6273420206
 20
12.4743738606
 11
6.7188373273
 21
12.3828785538
  0
LINE
  5
224
100
AcDbEntity
  8
06___PRT_ALL_SURFS
100
AcDbLine
 62
7
  6
CONTINUOUS
 10
6.8216891475
 20
12.3991770102
 11
6.7297305428
 21
12.4911356148
  0
LINE
  5
225
100
AcDbEntity
  8
06___PRT_ALL_SURFS
100
AcDbLine
 62
7
  6
CONTINUOUS
 10
7.0857331015
 20
10.4881533881
 11
7.0857331015
 21
12.2794919708
  0
LINE
  5
226
100
AcDbEntity
  8
06___PRT_ALL_SURFS
100
AcDbLine
 62
7
  6
CONTINUOUS
 10
6.7826243572
 20
12.5440294292
 11
6.8522799258
 21
12.4743738606
  0
LINE
  5
227
100
AcDbEntity
  8
06___PRT_ALL_SURFS
100
AcDbLine
 62
7
  6
CONTINUOUS
 10
9.2904575109
 20
10.3109880338
 11
9.4479378259
 21
10.1535077188
  0
LINE
  5
228
100
AcDbEntity
  8
06___PRT_ALL_SURFS
100
AcDbLine
 62
7
  6
CONTINUOUS
 10
9.3859796979
 20
15.7852659244
 11
9.5703149019
 21
16.0540763914
  0
LINE
  5
229
100
AcDbEntity
  8
06___PRT_ALL_SURFS
100
AcDbLine
 62
7
  6
CONTINUOUS
 10
8.4760040314
 20
14.70744238
 11
5.9496284254
 21
12.181066774
  0
LINE
  5
22A
100
AcDbEntity
  8
06___PRT_ALL_SURFS
100
AcDbLine
 62
7
  6
CONTINUOUS
 10
6.2683633738
 20
12.3828785538
 11
6.3598586806
 21
12.4743738606
  0
LINE
  5
22B
100
AcDbEntity
  8
06___PRT_ALL_SURFS
100
AcDbLine
 62
7
  6
CONTINUOUS
 10
6.3907278474
 20
12.3991770102
 11
6.3213963824
 21
12.3298455453
  0
LINE
  5
22C
100
AcDbEntity
  8
06___PRT_ALL_SURFS
100
AcDbLine
 62
7
  6
CONTINUOUS
 10
8.4760040314
 20
16.2428754508
 11
8.4760040314
 21
14.70744238
  0
LINE
  5
22D
100
AcDbEntity
  8
06___PRT_ALL_SURFS
100
AcDbLine
 62
7
  6
CONTINUOUS
 10
7.0574751501
 20
12.4743738606
 11
7.1272003158
 21
12.5440990263
  0
LINE
  5
22E
100
AcDbEntity
  8
06___PRT_ALL_SURFS
100
AcDbLine
 62
7
  6
CONTINUOUS
 10
7.1802333244
 20
12.4910660177
 11
7.0883443169
 21
12.3991770102
  0
LINE
  5
22F
100
AcDbEntity
  8
06___PRT_ALL_SURFS
100
AcDbLine
 62
7
  6
CONTINUOUS
 10
7.0857331015
 20
12.2794919708
 11
7.4006937314
 21
12.5944526007
  0
LINE
  5
230
100
AcDbEntity
  8
06___PRT_ALL_SURFS
100
AcDbLine
 62
7
  6
CONTINUOUS
 10
11.318016566
 20
12.1613817346
 11
17.6172291645
 21
12.1613817346
  0
LINE
  5
231
100
AcDbEntity
  8
06___PRT_ALL_SURFS
100
AcDbLine
 62
7
  6
CONTINUOUS
 10
10.1048407557
 20
12.3991770102
 11
9.9365700142
 21
12.3991770102
  0
LINE
  5
232
100
AcDbEntity
  8
06___PRT_ALL_SURFS
100
AcDbLine
 62
7
  6
CONTINUOUS
 10
7.0883443169
 20
12.3991770102
 11
6.8216891475
 21
12.3991770102
  0
LINE
  5
233
100
AcDbEntity
  8
06___PRT_ALL_SURFS
100
AcDbLine
 62
7
  6
CONTINUOUS
 10
6.5964728538
 20
12.3991770102
 11
6.3907278474
 21
12.3991770102
  0
LINE
  5
234
100
AcDbEntity
  8
06___PRT_ALL_SURFS
100
AcDbLine
 62
7
  6
CONTINUOUS
 10
9.7375229275
 20
12.3994722858
 11
9.6307936691
 21
12.3994722858
  0
LINE
  5
235
100
AcDbEntity
  8
06___PRT_ALL_SURFS
100
AcDbLine
 62
7
  6
CONTINUOUS
 10
9.4323026711
 20
12.3994722858
 11
9.2634413783
 21
12.3994722858
  0
LINE
  5
236
100
AcDbEntity
  8
06___PRT_ALL_SURFS
100
AcDbLine
 62
7
  6
CONTINUOUS
 10
6.3598586806
 20
12.4743738606
 11
6.6273420206
 21
12.4743738606
  0
LINE
  5
237
100
AcDbEntity
  8
06___PRT_ALL_SURFS
100
AcDbLine
 62
7
  6
CONTINUOUS
 10
6.8522799258
 20
12.4743738606
 11
7.0574751501
 21
12.4743738606
  0
LINE
  5
238
100
AcDbEntity
  8
06___PRT_ALL_SURFS
100
AcDbLine
 62
7
  6
CONTINUOUS
 10
9.9674391809
 20
12.4743738606
 11
10.073971589
 21
12.4743738606
  0
LINE
  5
239
100
AcDbEntity
  8
06___PRT_ALL_SURFS
100
AcDbLine
 62
7
  6
CONTINUOUS
 10
9.2945073955
 20
12.4744722858
 11
9.4012366539
 21
12.4744722858
  0
LINE
  5
23A
100
AcDbEntity
  8
06___PRT_ALL_SURFS
100
AcDbLine
 62
7
  6
CONTINUOUS
 10
9.5997276519
 20
12.4744722858
 11
9.7685889447
 21
12.4744722858
  0
LINE
  5
23B
100
AcDbEntity
  8
06___PRT_ALL_SURFS
100
AcDbLine
 62
7
  6
CONTINUOUS
 10
7.4006937314
 20
12.5944526007
 11
8.975496881
 21
12.5944526007
  0
LINE
  5
23C
100
AcDbEntity
  8
06___PRT_ALL_SURFS
100
AcDbLine
 62
7
  6
CONTINUOUS
 10
10.3928197156
 20
12.5944526007
 11
10.8849456999
 21
12.5944526007
  0
LINE
  5
23D
100
AcDbEntity
  8
06___PRT_ALL_SURFS
100
AcDbLine
 62
7
  6
CONTINUOUS
 10
8.975496881
 20
12.5944526007
 11
9.2904575109
 21
12.2794919708
  0
LINE
  5
23E
100
AcDbEntity
  8
06___PRT_ALL_SURFS
100
AcDbLine
 62
7
  6
CONTINUOUS
 10
9.2634413783
 20
12.3994722858
 11
9.1718476464
 21
12.4910660177
  0
LINE
  5
23F
100
AcDbEntity
  8
06___PRT_ALL_SURFS
100
AcDbLine
 62
7
  6
CONTINUOUS
 10
9.224880655
 20
12.5440990263
 11
9.2945073955
 21
12.4744722858
  0
LINE
  5
240
100
AcDbEntity
  8
06___PRT_ALL_SURFS
100
AcDbLine
 62
7
  6
CONTINUOUS
 10
9.2904575109
 20
12.2794919708
 11
9.2904575109
 21
10.3109880338
  0
LINE
  5
241
100
AcDbEntity
  8
06___PRT_ALL_SURFS
100
AcDbLine
 62
7
  6
CONTINUOUS
 10
5.5854551971
 20
12.8869680454
 11
5.3295496853
 21
12.8869680454
  0
LINE
  5
242
100
AcDbEntity
  8
06___PRT_ALL_SURFS
100
AcDbLine
 62
7
  6
CONTINUOUS
 10
17.6172291645
 20
13.1062636244
 11
12.0070448014
 21
13.1062636244
  0
LINE
  5
243
100
AcDbEntity
  8
06___PRT_ALL_SURFS
100
AcDbLine
 62
7
  6
CONTINUOUS
 10
12.0070448014
 20
13.2637439393
 11
12.8731865337
 21
13.2637439393
  0
LINE
  5
244
100
AcDbEntity
  8
06___PRT_ALL_SURFS
100
AcDbLine
 62
7
  6
CONTINUOUS
 10
9.807149668
 20
12.3298455453
 11
9.7375229275
 21
12.3994722858
  0
LINE
  5
245
100
AcDbEntity
  8
06___PRT_ALL_SURFS
100
AcDbLine
 62
7
  6
CONTINUOUS
 10
9.7685889447
 20
12.4744722858
 11
9.8601826766
 21
12.3828785538
  0
LINE
  5
246
100
AcDbEntity
  8
06___PRT_ALL_SURFS
100
AcDbLine
 62
7
  6
CONTINUOUS
 10
9.9365700142
 20
12.3991770102
 11
9.8446810066
 21
12.4910660177
  0
LINE
  5
247
100
AcDbEntity
  8
06___PRT_ALL_SURFS
100
AcDbLine
 62
7
  6
CONTINUOUS
 10
9.8977140152
 20
12.5440990263
 11
9.9674391809
 21
12.4743738606
  0
LINE
  5
248
100
AcDbEntity
  8
06___PRT_ALL_SURFS
100
AcDbLine
 62
7
  6
CONTINUOUS
 10
9.506992944
 20
10.7243738606
 11
9.506992944
 21
11.7479959078
  0
LINE
  5
249
100
AcDbEntity
  8
06___PRT_ALL_SURFS
100
AcDbLine
 62
7
  6
CONTINUOUS
 10
9.8613236526
 20
11.7479959078
 11
9.8613236526
 21
10.7243738606
  0
LINE
  5
24A
100
AcDbEntity
  8
06___PRT_ALL_SURFS
100
AcDbLine
 62
7
  6
CONTINUOUS
 10
6.9085677471
 20
10.3109880338
 11
7.0857331015
 21
10.4881533881
  0
LINE
  5
24B
100
AcDbEntity
  8
06___PRT_ALL_SURFS
100
AcDbLine
 62
7
  6
CONTINUOUS
 10
9.4012366539
 20
12.4744722858
 11
9.4708633944
 21
12.5440990263
  0
LINE
  5
24C
100
AcDbEntity
  8
06___PRT_ALL_SURFS
100
AcDbLine
 62
7
  6
CONTINUOUS
 10
12.6959693219
 20
13.834610081
 11
12.538489007
 21
13.834610081
  0
LINE
  5
24D
100
AcDbEntity
  8
06___PRT_ALL_SURFS
100
AcDbLine
 62
7
  6
CONTINUOUS
 10
9.0542370385
 20
13.834610081
 11
8.8967567235
 21
13.834610081
  0
LINE
  5
24E
100
AcDbEntity
  8
06___PRT_ALL_SURFS
100
AcDbLine
 62
7
  6
CONTINUOUS
 10
10.8849456999
 20
12.5944526007
 11
11.318016566
 21
12.1613817346
  0
LINE
  5
24F
100
AcDbEntity
  8
06___PRT_ALL_SURFS
100
AcDbLine
 62
7
  6
CONTINUOUS
 10
10.0778590857
 20
10.3109880338
 11
10.0778590857
 21
12.2794919708
  0
LINE
  5
250
100
AcDbEntity
  8
06___PRT_ALL_SURFS
100
AcDbLine
 62
7
  6
CONTINUOUS
 10
9.523896403
 20
12.4910660177
 11
9.4323026711
 21
12.3994722858
  0
LINE
  5
251
100
AcDbEntity
  8
06___PRT_ALL_SURFS
100
AcDbLine
 62
7
  6
CONTINUOUS
 10
9.50813392
 20
12.3828785538
 11
9.5997276519
 21
12.4744722858
  0
LINE
  5
252
100
AcDbEntity
  8
06___PRT_ALL_SURFS
100
AcDbLine
 62
7
  6
CONTINUOUS
 10
9.6307936691
 20
12.3994722858
 11
9.5611669286
 21
12.3298455453
  0
LINE
  5
253
100
AcDbEntity
  8
06___PRT_ALL_SURFS
100
AcDbLine
 62
7
  6
CONTINUOUS
 10
10.073971589
 20
12.4743738606
 11
10.1436967547
 21
12.5440990263
  0
LINE
  5
254
100
AcDbEntity
  8
06___PRT_ALL_SURFS
100
AcDbLine
 62
7
  6
CONTINUOUS
 10
10.1967297633
 20
12.4910660177
 11
10.1048407557
 21
12.3991770102
  0
LINE
  5
255
100
AcDbEntity
  8
06___PRT_ALL_SURFS
100
AcDbLine
 62
7
  6
CONTINUOUS
 10
10.0778590857
 20
12.2794919708
 11
10.3928197156
 21
12.5944526007
  0
LINE
  5
256
100
AcDbEntity
  8
06___PRT_ALL_SURFS
100
AcDbLine
 62
7
  6
CONTINUOUS
 10
8.8967567235
 20
14.1889407897
 11
9.0542370385
 21
14.1889407897
  0
LINE
  5
257
100
AcDbEntity
  8
06___PRT_ALL_SURFS
100
AcDbLine
 62
7
  6
CONTINUOUS
 10
12.538489007
 20
14.1889407897
 11
12.6959693219
 21
14.1889407897
  0
LINE
  5
258
100
AcDbEntity
  8
06___PRT_ALL_SURFS
100
AcDbLine
 62
7
  6
CONTINUOUS
 10
12.8731865337
 20
14.4054762228
 11
12.2826353526
 21
14.4054762228
  0
LINE
  5
259
100
AcDbEntity
  8
06___PRT_ALL_SURFS
100
AcDbLine
 62
7
  6
CONTINUOUS
 10
9.5703149019
 20
16.0540763914
 11
9.2240355275
 21
16.4003557658
  0
LINE
  5
25A
100
AcDbEntity
  8
06___PRT_ALL_SURFS
100
AcDbLine
 62
7
  6
CONTINUOUS
 10
12.0070448014
 20
13.1062636244
 11
12.0070448014
 21
13.2637439393
  0
LINE
  5
25B
100
AcDbEntity
  8
06___PRT_ALL_SURFS
100
AcDbLine
 62
7
  6
CONTINUOUS
 10
12.8731865337
 20
13.2637439393
 11
13.050351888
 21
13.4409092936
  0
LINE
  5
25C
100
AcDbEntity
  8
06___PRT_ALL_SURFS
100
AcDbLine
 62
7
  6
CONTINUOUS
 10
9.9203787708
 20
10.1535077188
 11
10.0778590857
 21
10.3109880338
  0
LINE
  5
25D
100
AcDbEntity
  8
06___PRT_ALL_SURFS
100
AcDbLine
 62
7
  6
CONTINUOUS
 10
9.0542370385
 20
15.8424840968
 11
8.8967567235
 21
15.8424840968
  0
LINE
  5
25E
100
AcDbEntity
  8
06___PRT_ALL_SURFS
100
AcDbLine
 62
7
  6
CONTINUOUS
 10
8.8967567235
 20
16.1968148055
 11
9.0542370385
 21
16.1968148055
  0
LINE
  5
25F
100
AcDbEntity
  8
06___PRT_ALL_SURFS
100
AcDbLine
 62
7
  6
CONTINUOUS
 10
13.050351888
 20
13.4409092936
 11
13.050351888
 21
14.2283108685
  0
LINE
  5
260
100
AcDbEntity
  8
06___PRT_ALL_SURFS
100
AcDbLine
 62
7
  6
CONTINUOUS
 10
9.2240355275
 20
16.4003557658
 11
8.6334843464
 21
16.4003557658
  0
LINE
  5
261
100
AcDbEntity
  8
06___PRT_ALL_SURFS
100
AcDbLine
 62
7
  6
CONTINUOUS
 10
13.050351888
 20
14.2283108685
 11
12.8731865337
 21
14.4054762228
  0
LINE
  5
262
100
AcDbEntity
  8
06___PRT_ALL_SURFS
100
AcDbLine
 62
7
  6
CONTINUOUS
 10
17.8928197156
 20
12.8306730732
 11
17.6172291645
 21
13.1062636244
  0
LINE
  5
263
100
AcDbEntity
  8
06___PRT_ALL_SURFS
100
AcDbLine
 62
7
  6
CONTINUOUS
 10
17.6172291645
 20
12.1613817346
 11
17.8928197156
 21
12.4369722858
  0
LINE
  5
264
100
AcDbEntity
  8
06___PRT_ALL_SURFS
100
AcDbLine
 62
7
  6
CONTINUOUS
 10
17.8928197156
 20
12.4369722858
 11
17.8928197156
 21
12.8306730732
  0
ARC
  5
265
100
AcDbEntity
  8
06___PRT_ALL_SURFS
100
AcDbCircle
 62
7
  6
CONTINUOUS
 10
10.7963630227
 20
15.0157124433
 40
1.6066716165
100
AcDbArc
 50
151.3816045115
 51
337.6778440257
  0
ARC
  5
266
100
AcDbEntity
  8
06___PRT_ALL_SURFS
100
AcDbCircle
 62
7
  6
CONTINUOUS
 10
5.4575024412
 20
12.181066774
 40
0.4921259843
100
AcDbArc
 50
285.0700621449
 51
360.0
  0
ARC
  5
267
100
AcDbEntity
  8
06___PRT_ALL_SURFS
100
AcDbCircle
 62
7
  6
CONTINUOUS
 10
5.4575024412
 20
12.181066774
 40
0.4921259843
100
AcDbArc
 50
180.0
 51
254.9299378551
  0
ARC
  5
268
100
AcDbEntity
  8
06___PRT_ALL_SURFS
100
AcDbCircle
 62
7
  6
CONTINUOUS
 10
1.3465427896
 20
14.8795984312
 40
0.4478346457
100
AcDbArc
 50
330.0
 51
150.0
  0
ARC
  5
269
100
AcDbEntity
  8
06___PRT_ALL_SURFS
100
AcDbCircle
 62
7
  6
CONTINUOUS
 10
1.2185900337
 20
14.657977757
 40
0.4478346457
100
AcDbArc
 50
150.0
 51
240.0
  0
ARC
  5
26A
100
AcDbEntity
  8
06___PRT_ALL_SURFS
100
AcDbCircle
 62
7
  6
CONTINUOUS
 10
1.3465427896
 20
14.8795984312
 40
0.1771653543
100
AcDbArc
 50
330.0
 51
150.0
  0
ARC
  5
26B
100
AcDbEntity
  8
06___PRT_ALL_SURFS
100
AcDbCircle
 62
7
  6
CONTINUOUS
 10
1.2185900337
 20
14.657977757
 40
0.1771653543
100
AcDbArc
 50
150.0
 51
330.0
  0
ARC
  5
26C
100
AcDbEntity
  8
06___PRT_ALL_SURFS
100
AcDbCircle
 62
7
  6
CONTINUOUS
 10
6.6920323141
 20
10.8818541755
 40
0.1771653543
100
AcDbArc
 50
180.0
 51
360.0
  0
ARC
  5
26D
100
AcDbEntity
  8
06___PRT_ALL_SURFS
100
AcDbCircle
 62
7
  6
CONTINUOUS
 10
6.6920323141
 20
11.9054762228
 40
0.1771653543
100
AcDbArc
 50
0.0
 51
180.0
  0
ARC
  5
26E
100
AcDbEntity
  8
06___PRT_ALL_SURFS
100
AcDbCircle
 62
7
  6
CONTINUOUS
 10
9.0542370385
 20
16.0196494511
 40
0.1771653543
100
AcDbArc
 50
270.0
 51
90.0
  0
ARC
  5
26F
100
AcDbEntity
  8
06___PRT_ALL_SURFS
100
AcDbCircle
 62
7
  6
CONTINUOUS
 10
8.8967567235
 20
16.0196494511
 40
0.1771653543
100
AcDbArc
 50
90.0
 51
270.0
  0
ARC
  5
270
100
AcDbEntity
  8
06___PRT_ALL_SURFS
100
AcDbCircle
 62
7
  6
CONTINUOUS
 10
9.0542370385
 20
14.0117754354
 40
0.1771653543
100
AcDbArc
 50
270.0
 51
90.0
  0
ARC
  5
271
100
AcDbEntity
  8
06___PRT_ALL_SURFS
100
AcDbCircle
 62
7
  6
CONTINUOUS
 10
8.8967567235
 20
14.0117754354
 40
0.1771653543
100
AcDbArc
 50
90.0
 51
270.0
  0
ARC
  5
272
100
AcDbEntity
  8
06___PRT_ALL_SURFS
100
AcDbCircle
 62
7
  6
CONTINUOUS
 10
12.6959693219
 20
14.0117754354
 40
0.1771653543
100
AcDbArc
 50
270.0
 51
90.0
  0
ARC
  5
273
100
AcDbEntity
  8
06___PRT_ALL_SURFS
100
AcDbCircle
 62
7
  6
CONTINUOUS
 10
12.538489007
 20
14.0117754354
 40
0.1771653543
100
AcDbArc
 50
90.0
 51
270.0
  0
ARC
  5
274
100
AcDbEntity
  8
06___PRT_ALL_SURFS
100
AcDbCircle
 62
7
  6
CONTINUOUS
 10
9.6841582983
 20
10.7243738606
 40
0.1771653543
100
AcDbArc
 50
180.0
 51
360.0
  0
ARC
  5
275
100
AcDbEntity
  8
06___PRT_ALL_SURFS
100
AcDbCircle
 62
7
  6
CONTINUOUS
 10
9.6841582983
 20
11.7479959078
 40
0.1771653543
100
AcDbArc
 50
0.0
 51
180.0
  0
ARC
  5
276
100
AcDbEntity
  8
06___PRT_ALL_SURFS
100
AcDbCircle
 62
7
  6
CONTINUOUS
 10
6.2948798781
 20
12.3563620496
 40
0.0375
100
AcDbArc
 50
135.0
 51
315.0
  0
ARC
  5
277
100
AcDbEntity
  8
06___PRT_ALL_SURFS
100
AcDbCircle
 62
7
  6
CONTINUOUS
 10
6.692320823
 20
12.3563620496
 40
0.0375
100
AcDbArc
 50
225.0
 51
45.0
  0
ARC
  5
278
100
AcDbEntity
  8
06___PRT_ALL_SURFS
100
AcDbCircle
 62
7
  6
CONTINUOUS
 10
7.1537168201
 20
12.517582522
 40
0.0375
100
AcDbArc
 50
315.0
 51
135.0
  0
ARC
  5
279
100
AcDbEntity
  8
06___PRT_ALL_SURFS
100
AcDbCircle
 62
7
  6
CONTINUOUS
 10
10.170213259
 20
12.517582522
 40
0.0375
100
AcDbArc
 50
315.0
 51
135.0
  0
ARC
  5
27A
100
AcDbEntity
  8
06___PRT_ALL_SURFS
100
AcDbCircle
 62
7
  6
CONTINUOUS
 10
9.8711975109
 20
12.517582522
 40
0.0375
100
AcDbArc
 50
45.0
 51
225.0
  0
ARC
  5
27B
100
AcDbEntity
  8
06___PRT_ALL_SURFS
100
AcDbCircle
 62
7
  6
CONTINUOUS
 10
9.8336661723
 20
12.3563620496
 40
0.0375
100
AcDbArc
 50
225.0
 51
45.0
  0
ARC
  5
27C
100
AcDbEntity
  8
06___PRT_ALL_SURFS
100
AcDbCircle
 62
7
  6
CONTINUOUS
 10
9.5346504243
 20
12.3563620496
 40
0.0375
100
AcDbArc
 50
135.0
 51
315.0
  0
ARC
  5
27D
100
AcDbEntity
  8
06___PRT_ALL_SURFS
100
AcDbCircle
 62
7
  6
CONTINUOUS
 10
9.4973798987
 20
12.517582522
 40
0.0375
100
AcDbArc
 50
315.0
 51
135.0
  0
ARC
  5
27E
100
AcDbEntity
  8
06___PRT_ALL_SURFS
100
AcDbCircle
 62
7
  6
CONTINUOUS
 10
9.1983641507
 20
12.517582522
 40
0.0375
100
AcDbArc
 50
45.0
 51
225.0
  0
ARC
  5
27F
100
AcDbEntity
  8
06___PRT_ALL_SURFS
100
AcDbCircle
 62
7
  6
CONTINUOUS
 10
6.75617745
 20
12.517582522
 40
0.0374015748
100
AcDbArc
 50
45.0
 51
225.0
  0
ENDSEC
  0
SECTION
  2
OBJECTS
  0
DICTIONARY
  5
280
100
AcDbDictionary
  3
ACAD_GROUP
350
281
  3
ACAD_MLINESTYLE
350
282
  0
DICTIONARY
  5
281
102
{ACAD_REACTORS
330
280
102
}
100
AcDbDictionary
  0
DICTIONARY
  5
282
102
{ACAD_REACTORS
330
280
102
}
100
AcDbDictionary
  3
STANDARD
350
283
  0
MLINESTYLE
  5
283
102
{ACAD_REACTORS
330
282
102
}
100
AcDbMlineStyle
  2
STANDARD
 70
0
  3

 62
256
 51
90.0
 52
90.0
 71
2
 49
0.5
 62
256
  6
BYLAYER
 49
-0.5
 62
256
  6
BYLAYER
  0
ENDSEC
  0
EOF
